<?xml version="1.0" encoding="utf-8"?>
<!-- Generator: Adobe Illustrator 23.0.2, SVG Export Plug-In . SVG Version: 6.00 Build 0)  -->
<svg version="1.1" id="Camada_1" xmlns="http://www.w3.org/2000/svg" xmlns:xlink="http://www.w3.org/1999/xlink" x="0px" y="0px"
	 viewBox="0 0 172 147" style="enable-background:new 0 0 172 147;" xml:space="preserve">
<style type="text/css">
	.st0{opacity:0.15;fill:#DDD3C0;}
	.st1{fill:url(#SVGID_1_);}
	.st2{fill:url(#SVGID_2_);}
	.st3{fill:url(#SVGID_3_);}
	.st4{fill:url(#SVGID_4_);}
	.st5{fill:url(#SVGID_5_);}
	.st6{fill:url(#SVGID_6_);}
	.st7{fill:url(#SVGID_7_);}
	.st8{fill:url(#SVGID_8_);}
	.st9{fill:url(#SVGID_9_);}
	.st10{fill:url(#SVGID_10_);}
	.st11{fill:url(#SVGID_11_);}
	.st12{fill:url(#SVGID_12_);}
	.st13{fill:none;}
</style>
<circle class="st0" cx="119.5" cy="94" r="51"/>
<circle class="st0" cx="119.5" cy="94" r="51"/>
<g>
	<linearGradient id="SVGID_1_" gradientUnits="userSpaceOnUse" x1="-33.0002" y1="6.8966" x2="211.0086" y2="6.8966">
		<stop  offset="0" style="stop-color:#4D4D4D"/>
		<stop  offset="0.1443" style="stop-color:#999999"/>
		<stop  offset="0.222" style="stop-color:#ACAAA7"/>
		<stop  offset="0.3715" style="stop-color:#CDC8BE"/>
		<stop  offset="0.4365" style="stop-color:#D6D3CC"/>
		<stop  offset="0.5491" style="stop-color:#E2E1DF"/>
		<stop  offset="0.6274" style="stop-color:#E6E6E6"/>
		<stop  offset="0.7713" style="stop-color:#9E9E9E"/>
		<stop  offset="0.8422" style="stop-color:#808080"/>
		<stop  offset="0.8683" style="stop-color:#858584"/>
		<stop  offset="0.9003" style="stop-color:#949390"/>
		<stop  offset="0.9354" style="stop-color:#ADAAA3"/>
		<stop  offset="0.9725" style="stop-color:#D0CABD"/>
		<stop  offset="1" style="stop-color:#EEE6D5"/>
	</linearGradient>
	<path class="st1" d="M69.11,7.66c0.5-3.25-2.26-6.01-5.52-5.52c-2.03,0.31-3.68,1.97-3.99,3.99c-0.5,3.25,2.26,6.01,5.52,5.52
		C67.15,11.34,68.8,9.68,69.11,7.66z"/>
	<linearGradient id="SVGID_2_" gradientUnits="userSpaceOnUse" x1="-32.9995" y1="15.3458" x2="211.007" y2="15.3458">
		<stop  offset="0" style="stop-color:#4D4D4D"/>
		<stop  offset="0.1443" style="stop-color:#999999"/>
		<stop  offset="0.222" style="stop-color:#ACAAA7"/>
		<stop  offset="0.3715" style="stop-color:#CDC8BE"/>
		<stop  offset="0.4365" style="stop-color:#D6D3CC"/>
		<stop  offset="0.5491" style="stop-color:#E2E1DF"/>
		<stop  offset="0.6274" style="stop-color:#E6E6E6"/>
		<stop  offset="0.7713" style="stop-color:#9E9E9E"/>
		<stop  offset="0.8422" style="stop-color:#808080"/>
		<stop  offset="0.8683" style="stop-color:#858584"/>
		<stop  offset="0.9003" style="stop-color:#949390"/>
		<stop  offset="0.9354" style="stop-color:#ADAAA3"/>
		<stop  offset="0.9725" style="stop-color:#D0CABD"/>
		<stop  offset="1" style="stop-color:#EEE6D5"/>
	</linearGradient>
	<path class="st2" d="M33.92,20.16c6.41,0.81,8.53-7.12,2.58-9.63c-0.01,0-0.02-0.01-0.03-0.01c-6.41-0.81-8.53,7.13-2.58,9.63
		C33.9,20.16,33.91,20.16,33.92,20.16z"/>
	<linearGradient id="SVGID_3_" gradientUnits="userSpaceOnUse" x1="-32.9997" y1="37.2449" x2="211.0059" y2="37.2449">
		<stop  offset="0" style="stop-color:#4D4D4D"/>
		<stop  offset="0.1443" style="stop-color:#999999"/>
		<stop  offset="0.222" style="stop-color:#ACAAA7"/>
		<stop  offset="0.3715" style="stop-color:#CDC8BE"/>
		<stop  offset="0.4365" style="stop-color:#D6D3CC"/>
		<stop  offset="0.5491" style="stop-color:#E2E1DF"/>
		<stop  offset="0.6274" style="stop-color:#E6E6E6"/>
		<stop  offset="0.7713" style="stop-color:#9E9E9E"/>
		<stop  offset="0.8422" style="stop-color:#808080"/>
		<stop  offset="0.8683" style="stop-color:#858584"/>
		<stop  offset="0.9003" style="stop-color:#949390"/>
		<stop  offset="0.9354" style="stop-color:#ADAAA3"/>
		<stop  offset="0.9725" style="stop-color:#D0CABD"/>
		<stop  offset="1" style="stop-color:#EEE6D5"/>
	</linearGradient>
	<path class="st3" d="M11.12,40.98c2.57,2.06,6.34,1.05,7.54-2.02c0.74-1.91,0.14-4.17-1.46-5.46c-2.57-2.06-6.34-1.05-7.54,2.02
		C8.92,37.44,9.52,39.7,11.12,40.98z"/>
	<linearGradient id="SVGID_4_" gradientUnits="userSpaceOnUse" x1="-32.9997" y1="66.7261" x2="211.0066" y2="66.7261">
		<stop  offset="0" style="stop-color:#4D4D4D"/>
		<stop  offset="0.1443" style="stop-color:#999999"/>
		<stop  offset="0.222" style="stop-color:#ACAAA7"/>
		<stop  offset="0.3715" style="stop-color:#CDC8BE"/>
		<stop  offset="0.4365" style="stop-color:#D6D3CC"/>
		<stop  offset="0.5491" style="stop-color:#E2E1DF"/>
		<stop  offset="0.6274" style="stop-color:#E6E6E6"/>
		<stop  offset="0.7713" style="stop-color:#9E9E9E"/>
		<stop  offset="0.8422" style="stop-color:#808080"/>
		<stop  offset="0.8683" style="stop-color:#858584"/>
		<stop  offset="0.9003" style="stop-color:#949390"/>
		<stop  offset="0.9354" style="stop-color:#ADAAA3"/>
		<stop  offset="0.9725" style="stop-color:#D0CABD"/>
		<stop  offset="1" style="stop-color:#EEE6D5"/>
	</linearGradient>
	<path class="st4" d="M7.66,61.97c-3.25-0.5-6.01,2.26-5.52,5.52c0.31,2.03,1.97,3.68,3.99,3.99c3.25,0.5,6.01-2.26,5.52-5.52
		C11.34,63.94,9.68,62.28,7.66,61.97z"/>
	<linearGradient id="SVGID_5_" gradientUnits="userSpaceOnUse" x1="-33.0001" y1="95.8897" x2="211.0082" y2="95.8897">
		<stop  offset="0" style="stop-color:#4D4D4D"/>
		<stop  offset="0.1443" style="stop-color:#999999"/>
		<stop  offset="0.222" style="stop-color:#ACAAA7"/>
		<stop  offset="0.3715" style="stop-color:#CDC8BE"/>
		<stop  offset="0.4365" style="stop-color:#D6D3CC"/>
		<stop  offset="0.5491" style="stop-color:#E2E1DF"/>
		<stop  offset="0.6274" style="stop-color:#E6E6E6"/>
		<stop  offset="0.7713" style="stop-color:#9E9E9E"/>
		<stop  offset="0.8422" style="stop-color:#808080"/>
		<stop  offset="0.8683" style="stop-color:#858584"/>
		<stop  offset="0.9003" style="stop-color:#949390"/>
		<stop  offset="0.9354" style="stop-color:#ADAAA3"/>
		<stop  offset="0.9725" style="stop-color:#D0CABD"/>
		<stop  offset="1" style="stop-color:#EEE6D5"/>
	</linearGradient>
	<path class="st5" d="M13.63,91.39c-3.07,1.2-4.08,4.97-2.02,7.53c1.28,1.6,3.55,2.21,5.46,1.46c3.07-1.19,4.08-4.97,2.02-7.54
		C17.8,91.25,15.54,90.65,13.63,91.39z"/>
	<linearGradient id="SVGID_6_" gradientUnits="userSpaceOnUse" x1="-32.9996" y1="116.9217" x2="211.0071" y2="116.9217">
		<stop  offset="0" style="stop-color:#4D4D4D"/>
		<stop  offset="0.1443" style="stop-color:#999999"/>
		<stop  offset="0.222" style="stop-color:#ACAAA7"/>
		<stop  offset="0.3715" style="stop-color:#CDC8BE"/>
		<stop  offset="0.4365" style="stop-color:#D6D3CC"/>
		<stop  offset="0.5491" style="stop-color:#E2E1DF"/>
		<stop  offset="0.6274" style="stop-color:#E6E6E6"/>
		<stop  offset="0.7713" style="stop-color:#9E9E9E"/>
		<stop  offset="0.8422" style="stop-color:#808080"/>
		<stop  offset="0.8683" style="stop-color:#858584"/>
		<stop  offset="0.9003" style="stop-color:#949390"/>
		<stop  offset="0.9354" style="stop-color:#ADAAA3"/>
		<stop  offset="0.9725" style="stop-color:#D0CABD"/>
		<stop  offset="1" style="stop-color:#EEE6D5"/>
	</linearGradient>
	<path class="st6" d="M40.28,113.18c-2.57-2.06-6.34-1.05-7.54,2.02c-0.74,1.91-0.14,4.17,1.46,5.46c2.57,2.06,6.34,1.05,7.54-2.02
		C42.49,116.73,41.88,114.47,40.28,113.18z"/>
	<linearGradient id="SVGID_7_" gradientUnits="userSpaceOnUse" x1="-33.0002" y1="124.1863" x2="211.0086" y2="124.1863">
		<stop  offset="0" style="stop-color:#4D4D4D"/>
		<stop  offset="0.1443" style="stop-color:#999999"/>
		<stop  offset="0.222" style="stop-color:#ACAAA7"/>
		<stop  offset="0.3715" style="stop-color:#CDC8BE"/>
		<stop  offset="0.4365" style="stop-color:#D6D3CC"/>
		<stop  offset="0.5491" style="stop-color:#E2E1DF"/>
		<stop  offset="0.6274" style="stop-color:#E6E6E6"/>
		<stop  offset="0.7713" style="stop-color:#9E9E9E"/>
		<stop  offset="0.8422" style="stop-color:#808080"/>
		<stop  offset="0.8683" style="stop-color:#858584"/>
		<stop  offset="0.9003" style="stop-color:#949390"/>
		<stop  offset="0.9354" style="stop-color:#ADAAA3"/>
		<stop  offset="0.9725" style="stop-color:#D0CABD"/>
		<stop  offset="1" style="stop-color:#EEE6D5"/>
	</linearGradient>
	<path class="st7" d="M67.49,119.43c-3.25-0.5-6.01,2.26-5.52,5.52c0.31,2.03,1.97,3.68,3.99,3.99c3.25,0.5,6.01-2.26,5.52-5.52
		C71.17,121.4,69.51,119.74,67.49,119.43z"/>
	<linearGradient id="SVGID_8_" gradientUnits="userSpaceOnUse" x1="-32.9997" y1="115.7371" x2="211.0079" y2="115.7371">
		<stop  offset="0" style="stop-color:#4D4D4D"/>
		<stop  offset="0.1443" style="stop-color:#999999"/>
		<stop  offset="0.222" style="stop-color:#ACAAA7"/>
		<stop  offset="0.3715" style="stop-color:#CDC8BE"/>
		<stop  offset="0.4365" style="stop-color:#D6D3CC"/>
		<stop  offset="0.5491" style="stop-color:#E2E1DF"/>
		<stop  offset="0.6274" style="stop-color:#E6E6E6"/>
		<stop  offset="0.7713" style="stop-color:#9E9E9E"/>
		<stop  offset="0.8422" style="stop-color:#808080"/>
		<stop  offset="0.8683" style="stop-color:#858584"/>
		<stop  offset="0.9003" style="stop-color:#949390"/>
		<stop  offset="0.9354" style="stop-color:#ADAAA3"/>
		<stop  offset="0.9725" style="stop-color:#D0CABD"/>
		<stop  offset="1" style="stop-color:#EEE6D5"/>
	</linearGradient>
	<path class="st8" d="M94.17,111.24c-3.07,1.19-4.08,4.97-2.02,7.54c1.28,1.6,3.55,2.21,5.46,1.46c3.07-1.2,4.08-4.97,2.02-7.54
		C98.35,111.1,96.08,110.49,94.17,111.24z"/>
	<linearGradient id="SVGID_9_" gradientUnits="userSpaceOnUse" x1="-33.0002" y1="93.8379" x2="211.0088" y2="93.8379">
		<stop  offset="0" style="stop-color:#4D4D4D"/>
		<stop  offset="0.1443" style="stop-color:#999999"/>
		<stop  offset="0.222" style="stop-color:#ACAAA7"/>
		<stop  offset="0.3715" style="stop-color:#CDC8BE"/>
		<stop  offset="0.4365" style="stop-color:#D6D3CC"/>
		<stop  offset="0.5491" style="stop-color:#E2E1DF"/>
		<stop  offset="0.6274" style="stop-color:#E6E6E6"/>
		<stop  offset="0.7713" style="stop-color:#9E9E9E"/>
		<stop  offset="0.8422" style="stop-color:#808080"/>
		<stop  offset="0.8683" style="stop-color:#858584"/>
		<stop  offset="0.9003" style="stop-color:#949390"/>
		<stop  offset="0.9354" style="stop-color:#ADAAA3"/>
		<stop  offset="0.9725" style="stop-color:#D0CABD"/>
		<stop  offset="1" style="stop-color:#EEE6D5"/>
	</linearGradient>
	<path class="st9" d="M119.96,90.1c-2.57-2.06-6.34-1.05-7.54,2.02c-0.74,1.91-0.14,4.17,1.46,5.46c2.57,2.06,6.34,1.05,7.54-2.02
		C122.17,93.65,121.56,91.38,119.96,90.1z"/>
	<linearGradient id="SVGID_10_" gradientUnits="userSpaceOnUse" x1="-32.9999" y1="64.3568" x2="211.007" y2="64.3568">
		<stop  offset="0" style="stop-color:#4D4D4D"/>
		<stop  offset="0.1443" style="stop-color:#999999"/>
		<stop  offset="0.222" style="stop-color:#ACAAA7"/>
		<stop  offset="0.3715" style="stop-color:#CDC8BE"/>
		<stop  offset="0.4365" style="stop-color:#D6D3CC"/>
		<stop  offset="0.5491" style="stop-color:#E2E1DF"/>
		<stop  offset="0.6274" style="stop-color:#E6E6E6"/>
		<stop  offset="0.7713" style="stop-color:#9E9E9E"/>
		<stop  offset="0.8422" style="stop-color:#808080"/>
		<stop  offset="0.8683" style="stop-color:#858584"/>
		<stop  offset="0.9003" style="stop-color:#949390"/>
		<stop  offset="0.9354" style="stop-color:#ADAAA3"/>
		<stop  offset="0.9725" style="stop-color:#D0CABD"/>
		<stop  offset="1" style="stop-color:#EEE6D5"/>
	</linearGradient>
	<path class="st10" d="M124.95,59.6c-3.25-0.5-6.01,2.26-5.52,5.52c0.31,2.03,1.97,3.68,3.99,3.99c3.25,0.5,6.01-2.26,5.52-5.52
		C128.63,61.57,126.97,59.91,124.95,59.6z"/>
	<linearGradient id="SVGID_11_" gradientUnits="userSpaceOnUse" x1="-33.0004" y1="35.1931" x2="211.0085" y2="35.1931">
		<stop  offset="0" style="stop-color:#4D4D4D"/>
		<stop  offset="0.1443" style="stop-color:#999999"/>
		<stop  offset="0.222" style="stop-color:#ACAAA7"/>
		<stop  offset="0.3715" style="stop-color:#CDC8BE"/>
		<stop  offset="0.4365" style="stop-color:#D6D3CC"/>
		<stop  offset="0.5491" style="stop-color:#E2E1DF"/>
		<stop  offset="0.6274" style="stop-color:#E6E6E6"/>
		<stop  offset="0.7713" style="stop-color:#9E9E9E"/>
		<stop  offset="0.8422" style="stop-color:#808080"/>
		<stop  offset="0.8683" style="stop-color:#858584"/>
		<stop  offset="0.9003" style="stop-color:#949390"/>
		<stop  offset="0.9354" style="stop-color:#ADAAA3"/>
		<stop  offset="0.9725" style="stop-color:#D0CABD"/>
		<stop  offset="1" style="stop-color:#EEE6D5"/>
	</linearGradient>
	<path class="st11" d="M117.46,39.69c3.07-1.2,4.08-4.97,2.02-7.54c-1.28-1.6-3.55-2.21-5.46-1.46c-3.07,1.19-4.08,4.97-2.02,7.54
		C113.28,39.83,115.55,40.44,117.46,39.69z"/>
	<linearGradient id="SVGID_12_" gradientUnits="userSpaceOnUse" x1="-33" y1="14.1611" x2="211.0083" y2="14.1611">
		<stop  offset="0" style="stop-color:#4D4D4D"/>
		<stop  offset="0.1443" style="stop-color:#999999"/>
		<stop  offset="0.222" style="stop-color:#ACAAA7"/>
		<stop  offset="0.3715" style="stop-color:#CDC8BE"/>
		<stop  offset="0.4365" style="stop-color:#D6D3CC"/>
		<stop  offset="0.5491" style="stop-color:#E2E1DF"/>
		<stop  offset="0.6274" style="stop-color:#E6E6E6"/>
		<stop  offset="0.7713" style="stop-color:#9E9E9E"/>
		<stop  offset="0.8422" style="stop-color:#808080"/>
		<stop  offset="0.8683" style="stop-color:#858584"/>
		<stop  offset="0.9003" style="stop-color:#949390"/>
		<stop  offset="0.9354" style="stop-color:#ADAAA3"/>
		<stop  offset="0.9725" style="stop-color:#D0CABD"/>
		<stop  offset="1" style="stop-color:#EEE6D5"/>
	</linearGradient>
	<path class="st12" d="M97.58,17.2c2.06-2.57,1.05-6.34-2.02-7.54c-1.91-0.74-4.17-0.14-5.46,1.46c-2.06,2.57-1.05,6.34,2.02,7.54
		C94.03,19.4,96.29,18.8,97.58,17.2z"/>
</g>
<path class="st13" d="M193,212"/>
<path class="st13" d="M193-588"/>
</svg>
